<svg xmlns="http://www.w3.org/2000/svg" width="16" height="16" fill="none"><path fill="#88add2" fill-rule="evenodd" d="M8 16A8 8 0 1 1 8 0a8 8 0 0 1 0 16Zm5.908-11.756a7.037 7.037 0 0 0-2.152-2.152l-1.283 1.561a5.024 5.024 0 0 1 1.873 1.874l1.562-1.283ZM4.244 2.092l1.283 1.561a5.024 5.024 0 0 0-1.874 1.874L2.092 4.244a7.037 7.037 0 0 1 2.152-2.152Zm-2.152 9.664 1.561-1.283a5.024 5.024 0 0 0 1.874 1.873l-1.283 1.562a7.037 7.037 0 0 1-2.152-2.152Zm9.664 2.152-1.283-1.561a5.023 5.023 0 0 0 1.873-1.874l1.562 1.283a7.037 7.037 0 0 1-2.152 2.152ZM12 8a4 4 0 1 1-8 0 4 4 0 0 1 8 0Z" clip-rule="evenodd"/></svg>